<svg xmlns="http://www.w3.org/2000/svg" viewBox="0 0 24 24" fill="currentColor">
  <!-- Running back silhouette - dynamic running pose -->
  <path d="M13.5 2c1.1 0 2 .9 2 2s-.9 2-2 2-2-.9-2-2 .9-2 2-2zm4 7.5l-2-1c-.3-.1-.6 0-.8.2l-1.2 1.8-2-.8V7h-2v2.5l-1.5.5-1.5-2c-.2-.3-.5-.3-.8-.2l-2 1c-.3.2-.4.5-.3.8l1.5 3.5-2.4 4.5c-.2.4 0 .8.4 1 .4.2.8 0 1-.4l2.5-4.7 1.8.7-.5 4.8c0 .4.3.8.7.8.4 0 .7-.3.8-.7l.5-5.3 2.2.9 1.5 4.7c.1.4.5.6.9.4.4-.1.6-.5.4-.9l-1.5-5-1.3-3 1-1.5 1.5.8 1.2 2c.2.3.5.4.8.3.4-.1.6-.5.5-.9l-1.5-3c-.1-.3-.4-.5-.7-.5z"/>
  <!-- Football tucked -->
  <ellipse cx="8" cy="11" rx="1.2" ry=".8" transform="rotate(20 8 11)"/>
</svg>
