<svg xmlns="http://www.w3.org/2000/svg" viewBox="0 0 24 24" fill="currentColor">
  <!-- Quarterback throwing silhouette -->
  <path d="M12 2c1.1 0 2 .9 2 2s-.9 2-2 2-2-.9-2-2 .9-2 2-2zm7 7l-2.5-1.5c-.3-.2-.7-.1-.9.2l-1.1 1.8-1.5-.9V6h-2v2.6l-1.5.9-1.1-1.8c-.2-.3-.6-.4-.9-.2L5 9c-.3.2-.4.6-.2.9l2 3.1-1.3 4c-.1.4.1.8.5.9.4.1.8-.1.9-.5l1.4-4.4 2.2 1.3v6.7h2v-6.7l2.2-1.3 1.4 4.4c.1.4.5.6.9.5.4-.1.6-.5.5-.9l-1.3-4 2-3.1c.2-.3.1-.7-.2-.9z"/>
  <!-- Football in throwing hand -->
  <ellipse cx="18" cy="6" rx="1.5" ry="1" transform="rotate(-30 18 6)"/>
</svg>
