<svg xmlns="http://www.w3.org/2000/svg" viewBox="0 0 24 24" fill="currentColor">
  <!-- Receiver catching silhouette - reaching up for catch -->
  <path d="M12 2c1.1 0 2 .9 2 2s-.9 2-2 2-2-.9-2-2 .9-2 2-2zm6.5 4l-1 .5c-.3.1-.4.4-.3.7l.8 1.8-3 1.5V8h-2v2.7l-3-1.5.8-1.8c.1-.3 0-.6-.3-.7l-1-.5c-.3-.1-.6 0-.8.3l-1.2 2.5c-.1.3 0 .6.2.8l2.8 2v3l-2 5c-.2.4 0 .8.4 1 .4.2.8 0 1-.4l2.1-5.1h2l2.1 5.1c.2.4.6.5 1 .4.4-.2.5-.6.4-1l-2-5v-3l2.8-2c.3-.2.4-.5.2-.8l-1.2-2.5c-.2-.3-.5-.4-.8-.3z"/>
  <!-- Football above hands -->
  <ellipse cx="12" cy="3" rx="1.2" ry=".8"/>
</svg>
